HIERARCHY
ROOT joint_Root
{
	OFFSET 0.0 0.0 0.0
	CHANNELS 6 Xposition Yposition Zposition Zrotation Xrotation Yrotation 
	JOINT Hips
	{
		OFFSET -17.1583 93.1646 452.98
		CHANNELS 6 Xposition Yposition Zposition Zrotation Xrotation Yrotation 
		JOINT Spine
		{
			OFFSET 15.7357 0.0 0.0
			CHANNELS 6 Xposition Yposition Zposition Zrotation Xrotation Yrotation 
			JOINT Chest
			{
				OFFSET 8.98455 -0.406207 0.0
				CHANNELS 6 Xposition Yposition Zposition Zrotation Xrotation Yrotation 
				JOINT Neck
				{
					OFFSET 16.3773 0.0 0.0
					CHANNELS 6 Xposition Yposition Zposition Zrotation Xrotation Yrotation 
					JOINT Head
					{
						OFFSET 6.45672 0.0 0.0
						CHANNELS 6 Xposition Yposition Zposition Zrotation Xrotation Yrotation 
						End Site
						{
							OFFSET 0.0 0.0 0.0
						}
					}
				}
				JOINT Shoulder_L
				{
					OFFSET 12.9942 -0.242716 4.98039
					CHANNELS 6 Xposition Yposition Zposition Zrotation Xrotation Yrotation 
					JOINT UpperArm_L
					{
						OFFSET 5.34809 0.0 0.0
						CHANNELS 6 Xposition Yposition Zposition Zrotation Xrotation Yrotation 
						JOINT LowerArm_L
						{
							OFFSET 24.3286 1.87007e-05 0.0
							CHANNELS 6 Xposition Yposition Zposition Zrotation Xrotation Yrotation 
							JOINT Hand_L
							{
								OFFSET 22.2916 0.0 0.0
								CHANNELS 6 Xposition Yposition Zposition Zrotation Xrotation Yrotation 
								End Site
								{
									OFFSET 0.0 0.0 0.0
								}
							}
						}
					}
				}
				JOINT Shoulder_R
				{
					OFFSET 12.9945 -0.242716 -4.98039
					CHANNELS 6 Xposition Yposition Zposition Zrotation Xrotation Yrotation 
					JOINT UpperArm_R
					{
						OFFSET -5.34813 0.0 0.0
						CHANNELS 6 Xposition Yposition Zposition Zrotation Xrotation Yrotation 
						JOINT LowerArm_R
						{
							OFFSET -24.3289 0.000322201 0.0
							CHANNELS 6 Xposition Yposition Zposition Zrotation Xrotation Yrotation 
							JOINT Hand_R
							{
								OFFSET -22.2915 -0.000108084 0.0
								CHANNELS 6 Xposition Yposition Zposition Zrotation Xrotation Yrotation 
								End Site
								{
									OFFSET 0.0 0.0 0.0
								}
							}
						}
					}
				}
			}
		}
		JOINT UpperLeg_L
		{
			OFFSET -2.19248 -6.46944 0.0
			CHANNELS 6 Xposition Yposition Zposition Zrotation Xrotation Yrotation 
			JOINT LowerLeg_L
			{
				OFFSET 39.0811 0.0 -1.23785e-05
				CHANNELS 6 Xposition Yposition Zposition Zrotation Xrotation Yrotation 
				JOINT Foot_L
				{
					OFFSET 40.9854 0.0 -1.26872e-05
					CHANNELS 6 Xposition Yposition Zposition Zrotation Xrotation Yrotation 
					JOINT Toes_L
					{
						OFFSET 11.7543 0.0 0.0
						CHANNELS 6 Xposition Yposition Zposition Zrotation Xrotation Yrotation 
						End Site
						{
							OFFSET 0.0 0.0 0.0
						}
					}
				}
			}
		}
		JOINT UpperLeg_R
		{
			OFFSET -2.19251 6.46944 0.0
			CHANNELS 6 Xposition Yposition Zposition Zrotation Xrotation Yrotation 
			JOINT LowerLeg_R
			{
				OFFSET -39.0811 -0.00228153 -0.0401928
				CHANNELS 6 Xposition Yposition Zposition Zrotation Xrotation Yrotation 
				JOINT Foot_R
				{
					OFFSET -40.9854 0.0 0.0
					CHANNELS 6 Xposition Yposition Zposition Zrotation Xrotation Yrotation 
					JOINT Toes_R
					{
						OFFSET -11.7543 0.0 0.0
						CHANNELS 6 Xposition Yposition Zposition Zrotation Xrotation Yrotation 
						End Site
						{
							OFFSET 0.0 0.0 0.0
						}
					}
				}
			}
		}
	}
}
MOTION
Frames:	5
Frame Time:	0.0333333
0.000000 0.000000 0.000000 0.000000 0.000000 -0.000000 -2.145240 93.004200 1.437820 87.410300 -1.843180 0.836399 15.735700 0.000005 -0.000001 109.379000 89.682200 -108.224000 8.984550 -0.406207 -0.000000 -7.165920 0.060110 2.318060 16.377300 -0.000001 -0.000001 -6.538890 2.779840 -1.988290 6.456720 -0.000001 -0.000000 5.050360 3.179260 -2.217160 12.994200 -0.242716 4.980390 -88.379800 -2.991330 -61.541300 5.348090 -0.000007 -0.000001 -33.121400 -61.757300 -92.441700 24.328600 0.000019 0.000005 14.725500 39.617700 -22.398300 22.291600 -0.000001 0.000005 58.991200 4.617310 14.617100 12.994500 -0.242716 -4.980390 94.150200 -7.938920 -62.284200 -5.348130 -0.000001 -0.000004 -48.459500 -62.639800 -101.996000 -24.328900 0.000322 -0.000009 3.672910 7.353420 -26.640000 -22.291500 -0.000108 -0.000004 43.849900 5.677760 -18.904200 -2.192480 -6.469440 -0.000000 -171.203000 -5.905750 1.167480 39.081100 -0.000007 -0.000012 -0.000381 0.001559 13.727600 40.985400 -0.000006 -0.000013 -2.361050 13.149300 -69.211300 11.754300 -0.000000 0.000003 -0.001864 0.194626 -8.680810 -2.192510 6.469440 -0.000001 178.470000 5.038570 -177.573000 -39.081100 -0.002282 -0.040193 0.004613 -0.006498 11.108100 -40.985400 0.000008 0.000006 -6.794760 5.147970 -67.630100 -11.754300 -0.000006 -0.000006 -0.011207 0.280115 -5.190500
0.000000 0.000000 0.000000 0.000000 0.000000 -0.000000 -2.148150 93.019600 1.366810 87.401700 -1.984930 0.728551 15.735700 0.000005 -0.000001 114.170000 89.621300 -112.985000 8.984550 -0.406207 -0.000000 -7.075500 0.156126 2.384280 16.377300 -0.000001 -0.000001 -6.697000 2.806020 -1.909700 6.456720 -0.000001 -0.000000 4.759990 3.246200 -2.317200 12.994200 -0.242716 4.980390 -88.462300 -2.824900 -61.423500 5.348090 -0.000007 -0.000001 -33.564300 -60.427300 -91.374000 24.328600 0.000019 0.000005 9.824970 34.959600 -16.814300 22.291600 -0.000001 0.000005 56.584200 4.571760 15.399900 12.994500 -0.242716 -4.980390 94.066800 -7.781060 -62.293800 -5.348130 -0.000001 -0.000004 -49.761500 -61.851400 -102.289000 -24.328900 0.000322 -0.000009 2.009990 4.643300 -23.440300 -22.291500 -0.000108 -0.000004 44.158600 5.673920 -18.054600 -2.192480 -6.469440 -0.000000 -171.244000 -5.783340 1.071980 39.081100 -0.000007 -0.000012 0.000324 -0.001338 13.645500 40.985400 -0.000006 -0.000013 -2.406970 12.872800 -69.125200 11.754300 -0.000000 0.000003 -0.001708 0.192635 -8.761770 -2.192510 6.469440 -0.000001 178.483000 5.079290 -177.694000 -39.081100 -0.002282 -0.040193 0.004854 -0.007800 11.001600 -40.985400 0.000008 0.000006 -6.701410 5.298050 -67.474600 -11.754300 -0.000006 -0.000006 -0.010929 0.278118 -5.272220
0.000000 0.000000 0.000000 0.000000 0.000000 -0.000000 -2.162440 93.033100 1.287930 87.377800 -2.063710 0.655092 15.735700 0.000005 -0.000001 113.396000 89.572500 -112.172000 8.984550 -0.406207 -0.000000 -6.982030 0.181493 2.462780 16.377300 -0.000001 -0.000001 -6.763250 2.799210 -1.820610 6.456720 -0.000001 -0.000000 4.531110 3.358310 -2.461610 12.994200 -0.242716 4.980390 -88.565300 -2.627460 -61.349800 5.348090 -0.000007 -0.000001 -34.763800 -59.010500 -89.959100 24.328600 0.000019 0.000005 5.488310 28.197600 -11.490000 22.291600 -0.000001 0.000005 52.930000 4.520830 16.259200 12.994500 -0.242716 -4.980390 93.958100 -7.552490 -62.235800 -5.348130 -0.000001 -0.000004 -50.482600 -60.997200 -101.635000 -24.328900 0.000322 -0.000009 0.305447 0.880674 -19.099400 -22.291500 -0.000108 -0.000004 43.496900 5.660360 -16.087200 -2.192480 -6.469440 -0.000000 -171.209000 -5.910890 0.995255 39.081100 -0.000007 -0.000012 -0.001498 0.006200 13.579700 40.985400 -0.000006 -0.000013 -2.431000 12.903400 -69.011500 11.754300 -0.000000 0.000003 -0.001540 0.190431 -8.851360 -2.192510 6.469440 -0.000001 178.550000 5.016540 -177.797000 -39.081100 -0.002282 -0.040193 0.005427 -0.010810 10.940100 -40.985400 0.000008 0.000006 -6.577980 5.271060 -67.448100 -11.754300 -0.000006 -0.000006 -0.010945 0.278234 -5.267490
0.000000 0.000000 0.000000 0.000000 0.000000 -0.000000 -2.183290 93.037900 1.221350 87.352900 -2.117080 0.553408 15.735700 0.000005 -0.000001 110.562000 89.537900 -109.313000 8.984550 -0.406207 -0.000000 -6.901280 0.164241 2.511970 16.377300 -0.000001 -0.000001 -6.715160 2.738890 -1.697830 6.456720 -0.000001 -0.000000 4.083470 3.517880 -2.523540 12.994200 -0.242716 4.980390 -88.660900 -2.436930 -61.199600 5.348090 -0.000007 -0.000001 -36.002700 -57.593300 -87.784800 24.328600 0.000019 0.000005 2.330000 20.971700 -6.480410 22.291600 -0.000001 0.000005 48.260000 4.474560 17.026800 12.994500 -0.242716 -4.980390 93.881700 -7.368200 -62.117100 -5.348130 -0.000001 -0.000004 -49.375800 -60.305900 -98.574100 -24.328900 0.000322 -0.000009 -0.960321 -3.755340 -14.364200 -22.291500 -0.000108 -0.000004 41.307200 5.619070 -12.510800 -2.192480 -6.469440 -0.000000 -171.165000 -6.064730 0.829255 39.081100 -0.000007 -0.000012 -0.002722 0.011220 13.634600 40.985400 -0.000006 -0.000013 -2.443130 12.989100 -69.010000 11.754300 -0.000000 0.000003 -0.001596 0.191164 -8.821550 -2.192510 6.469440 -0.000001 178.638000 4.894790 -177.978000 -39.081100 -0.002282 -0.040193 0.006672 -0.017182 10.984100 -40.985400 0.000008 0.000006 -6.441220 5.139940 -67.469100 -11.754300 -0.000006 -0.000006 -0.010909 0.277979 -5.277940
0.000000 0.000000 0.000000 0.000000 0.000000 -0.000000 -2.188190 93.079400 1.123910 87.354100 -2.171020 0.307671 15.735700 0.000005 -0.000001 110.895000 89.546700 -109.650000 8.984550 -0.406207 -0.000000 -6.919720 0.163247 2.504040 16.377300 -0.000001 -0.000001 -6.671970 2.492300 -1.441280 6.456720 -0.000001 -0.000000 3.710290 3.591070 -2.601060 12.994200 -0.242716 4.980390 -88.887200 -2.015820 -61.090700 5.348090 -0.000007 -0.000001 -37.586800 -56.176500 -85.510400 24.328600 0.000019 0.000005 0.434722 15.233200 -1.648640 22.291600 -0.000001 0.000005 43.380600 4.379370 18.559200 12.994500 -0.242716 -4.980390 93.821800 -7.212270 -61.982900 -5.348130 -0.000001 -0.000004 -47.905400 -59.350300 -94.365300 -24.328900 0.000322 -0.000009 -1.281700 -7.885630 -9.264970 -22.291500 -0.000108 -0.000004 38.716000 5.529750 -7.746650 -2.192480 -6.469440 -0.000000 -171.190000 -6.226390 0.704157 39.081100 -0.000007 -0.000012 -0.001237 0.005228 13.305200 40.985400 -0.000006 -0.000013 -2.481890 13.049700 -68.887600 11.754300 -0.000000 0.000003 -0.001628 0.191590 -8.804260 -2.192510 6.469440 -0.000001 178.640000 4.825680 -178.121000 -39.081100 -0.002282 -0.040193 0.005114 -0.009485 10.606500 -40.985400 0.000008 0.000006 -6.699720 5.150360 -67.125100 -11.754300 -0.000006 -0.000006 -0.010788 0.277100 -5.313900
